<?xml version="1.0" encoding="utf-8"?>
<!-- Generator: Adobe Illustrator 23.0.0, SVG Export Plug-In . SVG Version: 6.00 Build 0)  -->
<svg version="1.1" id="Layer_1" xmlns="http://www.w3.org/2000/svg" xmlns:xlink="http://www.w3.org/1999/xlink" x="0px" y="0px"
	 viewBox="0 0 1534.1 884" style="enable-background:new 0 0 1534.1 884;" xml:space="preserve">
<style type="text/css">
	.st0{fill:#FFC829;}
</style>
<title>Logo OTB</title>
<path class="st0" d="M911.4,652.2H798.2c-0.1-147-0.3-294-0.4-441c0-3.8-0.1-7.7,0-11.6c0.3-5.6-2.6-7.8-7.8-7.8H689.5
	c-0.6,2-0.9,2.5-0.8,2.8c1.7,2.9,3.3,5.9,5.2,8.6c43.2,59.8,56.9,127.4,48.5,199.2C728.8,519,639.7,616.6,525,644.5
	c-61.2,11.8-134.6,0.9-146.9-2.4c-97.2-25.9-210.5-124.5-209.7-279.4c0.3-50.8-0.4-101.6,0.4-152.4c0.2-13.3-4-22.3-13.3-31.3
	c-30.4-29.2-59.8-59.3-89.5-89.1c-3.2-3.2-7.8-5.6-9-11.8l7.1-0.3c355.5,0,711,0,1066.5,0.1c85.8,0.1,149.1,68.9,144.2,154.3
	c-1.3,21.9-9,41.8-17.6,61.7c9.3,1.5,17.4,2.7,25.4,4.2c43.1,8.6,75,31,92.1,73c11.7,28.7,15.8,58.1,15.6,89
	c-0.7,91.3-77.6,179.6-168.4,190.6c-70,1.5-225.9,1.5-229.3,1.5h-5.8c0.4-29.9,1-59.8,1-89.8c0.2-117.8-0.2-235.7,0.4-353.6
	c0.1-14.2-4-18.7-17.9-17.3s-25.1,0.4-37.7,0.4c-20.9,0-20.9,0-20.9,21.1L911.4,652.2z M283.5,365.6
	c0.2,95.5,78.1,173.1,173.3,172.9S630.3,460.2,629.9,364S551.1,191.3,456,191.7S283.2,270.1,283.5,365.6z M1102.9,465v62.4
	c0,5.2-1,11.3,7.3,11c33.3-0.9,66.8,3.5,99.8-2.8c36.2-6.9,66.2-44.4,66.8-81.3c0.5-30.6-27-56.4-64.6-60.3c-32.7-3.5-65.6-1-98.5-2
	c-9.5-0.3-11.2,3.8-11,12.1C1103.2,424.4,1102.9,444.7,1102.9,465z M1102.9,234.3c0,11.6-0.1,23.2,0.1,34.7c0,3.2-1.1,8.3,3.4,8.3
	c13.1-0.1,27.2,5.1,39-4.8c17.1-14.3,21-51,7.7-69.2c-7.5-10.3-32-17.3-45.2-10.9c-10.5,5-3.5,16.2-4.8,24.6
	C1102.2,222.6,1102.9,228.5,1102.9,234.3z"/>
<path class="st0" d="M290,745.6c0.1,7.9-1.4,15.7-4.4,23c-3.1,7.2-7.6,13.7-13.2,19.2c-5.7,5.6-12.5,9.9-19.9,12.9
	c-14.9,6.1-31.6,6.1-46.5,0c-7.4-2.9-14.1-7.3-19.7-12.9c-11.4-11.1-17.8-26.3-17.9-42.2c0-7.9,1.6-15.7,4.7-23
	c3-7.3,7.5-13.8,13.2-19.3c5.6-5.6,12.3-10,19.7-13c7.4-3,15.3-4.6,23.3-4.5c8,0,16,1.5,23.4,4.5c7.4,3,14,7.4,19.7,13
	c5.6,5.5,10.1,12.1,13.2,19.3C288.6,729.9,290.1,737.7,290,745.6z M229.2,779c8.2,0.1,16.1-3.4,21.5-9.6c2.8-3.1,4.9-6.7,6.3-10.6
	c1.4-4.3,2-8.7,2-13.2c0-9.5-2.8-17.5-8.5-23.9c-5.3-6.2-13.1-9.7-21.3-9.6c-8.2-0.2-16,3.3-21.3,9.6c-5.6,6.4-8.4,14.3-8.4,23.9
	s2.7,17.9,8.2,24S220.5,779,229.2,779z"/>
<path class="st0" d="M307.5,802.2v-78.5h25.4v15.9c3-5.6,7.4-10.4,12.7-13.9c4.8-3,10.5-4.5,17.3-4.5c4.7-0.1,9.3,0.7,13.7,2.4
	c3.7,1.6,7,4,9.6,7.1c2.1,2.8,3.6,6.1,4.4,9.6c1,5.6,1.5,11.3,1.4,17v44.9h-27.9v-42c0-6.4-1-11-3-13.7s-5.3-4.3-9.8-4.3
	s-9.9,2.1-12.6,6.4s-4,11.1-4,20.7v32.9L307.5,802.2z"/>
<path class="st0" d="M412.2,802.2V681.7H440v120.5H412.2z"/>
<path class="st0" d="M456.9,836.9l22.1-46.6l-31.7-66.6H478l11,28.4c0.9,2.2,1.7,4.4,2.2,6.7c0.6,1.9,1.1,3.8,1.5,5.7
	c0.4-2,0.8-4,1.4-5.9c0.6-2.2,1.3-4.4,2.3-6.5l11.1-28.4h29.6l-49.4,113.2H456.9z"/>
<path class="st0" d="M614.1,802.2v-86.9h-25.5v-26.9h82v26.9h-25.5v86.9L614.1,802.2z"/>
<path class="st0" d="M683.8,802.2V681.7H711V724c0,2-0.1,4.7-0.3,7.9c0,2.1-0.2,4.2-0.6,6.3c3.5-5.8,7.6-10.1,12.3-12.9
	c5.1-2.8,10.9-4.2,16.8-4.1c4.7-0.1,9.3,0.7,13.7,2.4c3.7,1.6,7,4,9.6,7.1c2.1,2.8,3.6,6.1,4.4,9.6c1,5.6,1.5,11.3,1.4,17v44.9
	h-27.9v-42c0-6.4-1-11-3-13.7s-5.3-4.3-9.8-4.3s-9.9,2.1-12.6,6.4s-4,11.1-4,20.7v32.9L683.8,802.2z"/>
<path class="st0" d="M869.2,768.5h-59.7c0.1,6.1,1.6,10.8,4.6,14s7.3,5,13,5c3.7,0.1,7.4-0.7,10.7-2.4c2.8-1.6,5.1-4.1,6.5-7
	l20.8,8.4c-2.4,5.9-6.8,10.5-13.2,13.8c-6.3,3.3-14.1,5-23.2,5c-13.7,0-24.7-3.9-33-11.5s-12.4-17.5-12.4-30s4.2-22.3,12.4-30.5
	s18.7-12.1,31.4-12.1s23.2,4.1,30.7,12.2c3.9,4.2,6.8,9.2,8.6,14.7c1.9,6.2,2.9,12.6,2.8,19.1L869.2,768.5z M841.9,752.9
	c-0.4-4.1-2.2-7.9-5.1-10.7c-2.9-2.7-6.7-4.2-10.6-4.1c-3.9-0.2-7.8,1.1-10.8,3.6c-2.9,3-4.8,7-5.3,11.2H841.9z"/>
<path class="st0" d="M936.7,802.2V688.4h31.2c12.6,0,21.6,0.4,27,1.3c4.6,0.6,9.1,2.1,13.2,4.3c3.9,2.2,7.2,5.4,9.6,9.2
	c2.3,4.2,3.4,8.9,3.3,13.7c0,6.5-1.6,11.7-4.9,15.5s-8.6,6.6-15.8,8.5c7.9,0.7,14.2,3.5,19,8.4s6.8,11.9,6.8,20.4
	c0.1,5.6-1.2,11.1-3.8,16c-2.5,4.6-6.3,8.4-11,10.8c-4.5,2.2-9.3,3.7-14.3,4.5c-6.1,0.8-15.5,1.2-28.1,1.2H936.7z M965.6,733.9h6.2
	c7.7,0,13-0.8,15.8-2.5s4.3-4.7,4.3-8.7s-1.4-7.3-4-9.1s-8.1-2.7-15.6-2.7h-6.7V733.9z M965.6,779h10.9c7.3,0,12.5-1,15.5-2.9
	s4.7-4.8,4.7-9.1s-1.4-8.1-4.2-10.1s-8-2.8-15.6-2.8h-11.3L965.6,779z"/>
<path class="st0" d="M1043,802.2v-78.5h26.1v18.5c2.8-6.8,6.4-11.8,11-15.1c5-3.5,10.9-5.3,17-5.1l3.4,0.2h1.5l1.8,0.2l-2.6,25.2
	c-1.6-0.6-3.3-1.1-5-1.4l-4.6-0.3c-6.7,0-11.9,2.1-15.6,6.2s-5.5,10-5.5,17.5v32.5L1043,802.2z"/>
<path class="st0" d="M1198.2,723.7v78.5h-25.5v-12.7c-3.2,4.9-7.4,9-12.3,12c-4.9,2.6-10.4,3.9-15.9,3.8c-10.5,0-18.9-3.9-25.1-11.5
	c-3.1-4-5.5-8.5-7-13.4c-1.7-5.6-2.5-11.4-2.4-17.3c0-12.9,3.3-23.1,9.9-30.6c6.6-7.5,15.4-11.3,26.4-11.3
	c5.3-0.1,10.6,1.2,15.2,3.8c4.6,2.8,8.4,6.9,11,11.7v-13H1198.2z M1173.8,762.9c0-6.2-1.6-11-4.9-14.4s-7.8-5.4-13.3-5.4
	s-10,1.7-13.2,5.2s-5,8.5-5,14.6s1.7,11,5,14.5s7.5,5.2,13.2,5.2s10-1.7,13.3-5.2S1173.8,769.1,1173.8,762.9L1173.8,762.9z"/>
<path class="st0" d="M1242.8,802.2l-35.3-78.5h29.6l13.4,34.8c0.2,0.4,0.4,0.8,0.5,1.2c1.3,3.6,2.4,7.3,3.2,11
	c0.7-3.5,1.7-6.9,3-10.2c0.3-0.6,0.6-1.3,0.8-2l13.4-34.8h28.8l-35.7,78.5H1242.8z"/>
<path class="st0" d="M1390.3,768.5h-59.7c0.2,6.1,1.7,10.8,4.6,14s7.3,5,13.1,5c3.7,0.1,7.3-0.7,10.6-2.4c2.8-1.6,5.1-4,6.5-7
	l20.9,8.4c-2.6,6-7.3,10.9-13.2,13.8c-6.4,3.3-14.1,5-23.3,5c-13.7,0-24.7-3.9-33-11.5s-12.3-17.5-12.3-30s4.1-22.3,12.3-30.5
	s18.8-12.1,31.5-12.1s23.1,4.1,30.7,12.2c3.8,4.3,6.7,9.3,8.5,14.7c2,6.2,2.9,12.6,2.8,19.1V768.5z M1363,752.9
	c-0.3-4.1-2.1-7.9-5-10.7c-2.9-2.7-6.7-4.2-10.7-4.1c-4.4,0-8,1.2-10.7,3.6s-4.6,6.5-5.4,11.2H1363z"/>
<path class="st0" d="M1448,707.4c0,14.2-11.5,25.7-25.7,25.7c-14.2,0-25.7-11.5-25.7-25.7s11.5-25.7,25.7-25.7l0,0
	C1436.5,681.7,1448,693.2,1448,707.4z M1422.3,729c11.9,0,21.6-9.7,21.6-21.6c0-11.9-9.7-21.6-21.6-21.6c-11.9,0-21.6,9.7-21.6,21.6
	v0C1400.7,719.3,1410.4,729,1422.3,729z"/>
<path class="st0" d="M1419.7,710.1c2,3.3,4.1,6.6,6.1,10h6.9l-6.4-10.6c1.8-0.2,3.3-1,4.5-2.4c1.2-1.4,1.7-3,1.7-4.9
	c0-2.6-0.8-4.6-2.5-5.9c-1.7-1.3-4.2-2-7.6-2h-8.5v25.8h5.9C1419.7,716.8,1419.7,713.4,1419.7,710.1z M1419.7,698.9h0.9
	c2.3,0,3.9,0.3,4.7,0.9c0.8,0.6,1.2,1.5,1.2,2.9c0,1.3-0.4,2.2-1.2,2.7c-0.8,0.5-2.4,0.8-4.8,0.8h-0.9V698.9z"/>
</svg>
